<?xml version="1.0" encoding="UTF-8"?>
<svg id="Layer_2" data-name="Layer 2" xmlns="http://www.w3.org/2000/svg" xmlns:xlink="http://www.w3.org/1999/xlink" viewBox="0 0 913 159">
  <defs>
    <style>
      .cls-1 {
        fill: url(#linear-gradient);
        filter: url(#drop-shadow-1);
      }
    </style>
    <linearGradient id="linear-gradient" x1="35.7" y1="-139.29" x2="771.01" y2="163.01" gradientUnits="userSpaceOnUse">
      <stop offset="0" stop-color="#df1a79"/>
      <stop offset="1" stop-color="#ee962f"/>
    </linearGradient>
    <filter id="drop-shadow-1" filterUnits="userSpaceOnUse">
      <feOffset dx="3" dy="3"/>
      <feGaussianBlur result="blur" stdDeviation="1"/>
      <feFlood flood-color="#000" flood-opacity=".3"/>
      <feComposite in2="blur" operator="in"/>
      <feComposite in="SourceGraphic"/>
    </filter>
  </defs>
  <g id="Layer_1-2" data-name="Layer 1">
    <path class="cls-1" d="M26.56,1.4c4.05,0,7.68,.81,10.88,2.44,3.2,1.63,5.69,3.89,7.48,6.8,1.79,2.91,2.68,6.23,2.68,9.96s-.89,7.05-2.68,9.96c-1.79,2.91-4.28,5.17-7.48,6.8-3.2,1.63-6.83,2.44-10.88,2.44H15.76v16.56H.24V1.4H26.56Zm3.24,22.88c1.2-.96,1.8-2.19,1.8-3.68s-.6-2.72-1.8-3.68-2.71-1.44-4.52-1.44H15.76v10.24h9.52c1.81,0,3.32-.48,4.52-1.44Zm40.2,18.24h25.6v13.84H54.48V1.4h15.52V42.52ZM146.72,15.24h-28.72v6.16h26.16v13.84h-26.16v7.28h28.72v13.84h-44.24V1.4h44.24V15.24Zm47.36,41.12l-2.8-7.36h-19.12l-2.8,7.36h-17.52L172.96,1.4h17.52l21.12,54.96h-17.52Zm-17.52-18.8h10.32l-5.12-13.36-5.2,13.36Zm48.16,17.4c-4.53-1.57-8.51-3.88-11.92-6.92l8.64-10.32c5.71,4.48,11.76,6.72,18.16,6.72,2.08,0,3.68-.33,4.8-1,1.12-.67,1.68-1.61,1.68-2.84,0-.85-.25-1.52-.76-2-.51-.48-1.35-.89-2.52-1.24-1.17-.35-3.25-.87-6.24-1.56-4.69-1.07-8.51-2.2-11.44-3.4-2.93-1.2-5.28-2.91-7.04-5.12-1.76-2.21-2.64-5.13-2.64-8.76s.89-6.8,2.68-9.52c1.79-2.72,4.32-4.83,7.6-6.32,3.28-1.49,7.08-2.24,11.4-2.24,9.17,0,16.85,2.48,23.04,7.44l-7.76,10.96c-2.51-1.81-5.12-3.19-7.84-4.12-2.72-.93-5.33-1.4-7.84-1.4-1.81,0-3.2,.33-4.16,1-.96,.67-1.44,1.53-1.44,2.6,0,.96,.27,1.72,.8,2.28,.53,.56,1.47,1.07,2.8,1.52,1.33,.45,3.39,.97,6.16,1.56,4.69,1.01,8.52,2.13,11.48,3.36,2.96,1.23,5.25,2.91,6.88,5.04,1.63,2.13,2.44,4.88,2.44,8.24,0,5.76-2.04,10.27-6.12,13.52-4.08,3.25-9.59,4.88-16.52,4.88-5.01,0-9.79-.79-14.32-2.36ZM313.04,15.24h-28.72v6.16h26.16v13.84h-26.16v7.28h28.72v13.84h-44.24V1.4h44.24V15.24Zm39.04,39.72c-4.53-1.57-8.51-3.88-11.92-6.92l8.64-10.32c5.71,4.48,11.76,6.72,18.16,6.72,2.08,0,3.68-.33,4.8-1,1.12-.67,1.68-1.61,1.68-2.84,0-.85-.25-1.52-.76-2-.51-.48-1.35-.89-2.52-1.24-1.17-.35-3.25-.87-6.24-1.56-4.69-1.07-8.51-2.2-11.44-3.4-2.93-1.2-5.28-2.91-7.04-5.12-1.76-2.21-2.64-5.13-2.64-8.76s.89-6.8,2.68-9.52c1.79-2.72,4.32-4.83,7.6-6.32,3.28-1.49,7.08-2.24,11.4-2.24,9.17,0,16.85,2.48,23.04,7.44l-7.76,10.96c-2.51-1.81-5.12-3.19-7.84-4.12-2.72-.93-5.33-1.4-7.84-1.4-1.81,0-3.2,.33-4.16,1-.96,.67-1.44,1.53-1.44,2.6,0,.96,.27,1.72,.8,2.28,.53,.56,1.47,1.07,2.8,1.52,1.33,.45,3.39,.97,6.16,1.56,4.69,1.01,8.52,2.13,11.48,3.36,2.96,1.23,5.25,2.91,6.88,5.04,1.63,2.13,2.44,4.88,2.44,8.24,0,5.76-2.04,10.27-6.12,13.52-4.08,3.25-9.59,4.88-16.52,4.88-5.01,0-9.79-.79-14.32-2.36ZM440.4,15.24h-28.72v6.16h26.16v13.84h-26.16v7.28h28.72v13.84h-44.24V1.4h44.24V15.24Zm25.12,27.28h25.6v13.84h-41.12V1.4h15.52V42.52Zm76.72-27.28h-28.72v6.16h26.16v13.84h-26.16v7.28h28.72v13.84h-44.24V1.4h44.24V15.24Zm21.28,38.2c-4.59-2.59-8.24-6.07-10.96-10.44-2.72-4.37-4.08-9.09-4.08-14.16s1.36-9.77,4.08-14.12c2.72-4.35,6.37-7.81,10.96-10.4,4.59-2.59,9.55-3.88,14.88-3.88,4.32,0,8.41,.85,12.28,2.56,3.87,1.71,7.21,4.08,10.04,7.12l-11.44,10c-1.33-1.71-2.95-3.07-4.84-4.08-1.89-1.01-3.91-1.52-6.04-1.52-2.45,0-4.75,.65-6.88,1.96-2.13,1.31-3.84,3.05-5.12,5.24-1.28,2.19-1.92,4.56-1.92,7.12s.64,4.95,1.92,7.16c1.28,2.21,2.99,3.97,5.12,5.28,2.13,1.31,4.43,1.96,6.88,1.96,2.13,0,4.16-.51,6.08-1.52,1.92-1.01,3.55-2.37,4.88-4.08l11.36,9.92c-2.83,3.04-6.17,5.43-10.04,7.16-3.87,1.73-7.96,2.6-12.28,2.6-5.33,0-10.29-1.29-14.88-3.88Zm56-38.2h-16.24V1.4h48V15.24h-16.24V56.36h-15.52V15.24Zm76.64,23.04L675.04,1.4h17.76l11.12,22.32,11.76-22.32h17.04l-21.04,36.88v18.08h-15.52v-18.08Zm49.68,15.16c-4.59-2.59-8.24-6.07-10.96-10.44-2.72-4.37-4.08-9.09-4.08-14.16s1.36-9.77,4.08-14.12c2.72-4.35,6.37-7.81,10.96-10.4,4.59-2.59,9.55-3.88,14.88-3.88s10.29,1.29,14.88,3.88c4.59,2.59,8.24,6.05,10.96,10.4,2.72,4.35,4.08,9.05,4.08,14.12s-1.36,9.79-4.08,14.16c-2.72,4.37-6.37,7.85-10.96,10.44-4.59,2.59-9.55,3.88-14.88,3.88s-10.29-1.29-14.88-3.88Zm21.76-12.16c2.13-1.31,3.84-3.07,5.12-5.28,1.28-2.21,1.92-4.6,1.92-7.16s-.64-4.93-1.92-7.12c-1.28-2.19-2.99-3.93-5.12-5.24-2.13-1.31-4.43-1.96-6.88-1.96s-4.75,.65-6.88,1.96c-2.13,1.31-3.84,3.05-5.12,5.24-1.28,2.19-1.92,4.56-1.92,7.12s.64,4.95,1.92,7.16c1.28,2.21,2.99,3.97,5.12,5.28,2.13,1.31,4.43,1.96,6.88,1.96s4.75-.65,6.88-1.96Zm41.4,12.8c-3.97-2.16-7.07-5.16-9.28-9-2.21-3.84-3.32-8.21-3.32-13.12V1.4h15.52V31.16c0,3.52,1,6.41,3,8.68,2,2.27,4.55,3.4,7.64,3.4s5.64-1.13,7.64-3.4c2-2.27,3-5.16,3-8.68V1.4h15.52V31.96c0,4.91-1.11,9.28-3.32,13.12-2.21,3.84-5.31,6.84-9.28,9-3.97,2.16-8.49,3.24-13.56,3.24s-9.59-1.08-13.56-3.24Zm79.72,2.28l-11.6-16.56h-3.76v16.56h-15.52V1.4h26.32c4.05,0,7.68,.81,10.88,2.44,3.2,1.63,5.69,3.89,7.48,6.8,1.79,2.91,2.68,6.23,2.68,9.96,0,4-1.04,7.53-3.12,10.6-2.08,3.07-4.93,5.35-8.56,6.84l12.88,18.32h-17.68Zm-15.36-30.64h9.52c1.81,0,3.32-.48,4.52-1.44s1.8-2.19,1.8-3.68-.6-2.72-1.8-3.68-2.71-1.44-4.52-1.44h-9.52v10.24ZM260.88,111.24h-16.24v-13.84h48v13.84h-16.24v41.12h-15.52v-41.12Zm82.88,0h-28.72v6.16h26.16v13.84h-26.16v7.28h28.72v13.84h-44.24v-54.96h44.24v13.84Zm9.6-13.84h15.52l14.72,26.24,14.72-26.24h15.52v54.96h-15.52v-29.44l-14.72,26.24-14.72-26.24v29.44h-15.52v-54.96Zm97.36,0c4.05,0,7.68,.81,10.88,2.44,3.2,1.63,5.69,3.89,7.48,6.8,1.79,2.91,2.68,6.23,2.68,9.96s-.89,7.05-2.68,9.96c-1.79,2.91-4.28,5.17-7.48,6.8-3.2,1.63-6.83,2.44-10.88,2.44h-10.8v16.56h-15.52v-54.96h26.32Zm3.24,22.88c1.2-.96,1.8-2.19,1.8-3.68s-.6-2.72-1.8-3.68-2.71-1.44-4.52-1.44h-9.52v10.24h9.52c1.81,0,3.32-.48,4.52-1.44Zm40.2,18.24h25.6v13.84h-41.12v-54.96h15.52v41.12Zm70.24,13.84l-2.8-7.36h-19.12l-2.8,7.36h-17.52l21.12-54.96h17.52l21.12,54.96h-17.52Zm-17.52-18.8h10.32l-5.12-13.36-5.2,13.36Zm47.68-22.32h-16.24v-13.84h48v13.84h-16.24v41.12h-15.52v-41.12Zm82.88,0h-28.72v6.16h26.16v13.84h-26.16v7.28h28.72v13.84h-44.24v-54.96h44.24v13.84Z"/>
  </g>
</svg>