<?xml version="1.0" encoding="UTF-8"?>
<svg id="Layer_2" data-name="Layer 2" xmlns="http://www.w3.org/2000/svg" xmlns:xlink="http://www.w3.org/1999/xlink" viewBox="0 0 354 104">
  <defs>
    <style>
      .cls-1 {
        fill: url(#linear-gradient);
        filter: url(#drop-shadow-1);
        stroke: #fff;
        stroke-miterlimit: 10;
        stroke-width: 3.81px;
      }

      .cls-2 {
        fill: #fffdfe;
      }

      .cls-3 {
        filter: url(#drop-shadow-2);
      }
    </style>
    <linearGradient id="linear-gradient" x1="-27.35" y1="-17.62" x2="327.31" y2="99.44" gradientUnits="userSpaceOnUse">
      <stop offset="0" stop-color="#e01f76"/>
      <stop offset="1" stop-color="#ee962f"/>
    </linearGradient>
    <filter id="drop-shadow-1" filterUnits="userSpaceOnUse">
      <feOffset dx="2.86" dy="2.86"/>
      <feGaussianBlur result="blur" stdDeviation=".95"/>
      <feFlood flood-color="#000" flood-opacity=".4"/>
      <feComposite in2="blur" operator="in"/>
      <feComposite in="SourceGraphic"/>
    </filter>
    <filter id="drop-shadow-2" filterUnits="userSpaceOnUse">
      <feOffset dx="3" dy="3"/>
      <feGaussianBlur result="blur-2" stdDeviation="1"/>
      <feFlood flood-color="#000" flood-opacity=".4"/>
      <feComposite in2="blur-2" operator="in"/>
      <feComposite in="SourceGraphic"/>
    </filter>
  </defs>
  <g id="Layer_1-2" data-name="Layer 1">
    <g>
      <rect class="cls-1" x="2.71" y="2.16" width="342.54" height="93.35" rx="18.15" ry="18.15"/>
      <g class="cls-3">
        <path class="cls-2" d="M70.24,70.32c-2.44-1-4.39-2.48-5.85-4.44-1.46-1.96-2.23-4.32-2.31-7.08h10.92c.16,1.56,.7,2.75,1.62,3.57,.92,.82,2.12,1.23,3.6,1.23s2.72-.35,3.6-1.05,1.32-1.67,1.32-2.91c0-1.04-.35-1.9-1.05-2.58-.7-.68-1.56-1.24-2.58-1.68-1.02-.44-2.47-.94-4.35-1.5-2.72-.84-4.94-1.68-6.66-2.52-1.72-.84-3.2-2.08-4.44-3.72-1.24-1.64-1.86-3.78-1.86-6.42,0-3.92,1.42-6.99,4.26-9.21,2.84-2.22,6.54-3.33,11.1-3.33s8.38,1.11,11.22,3.33c2.84,2.22,4.36,5.31,4.56,9.27h-11.1c-.08-1.36-.58-2.43-1.5-3.21s-2.1-1.17-3.54-1.17c-1.24,0-2.24,.33-3,.99s-1.14,1.61-1.14,2.85c0,1.36,.64,2.42,1.92,3.18,1.28,.76,3.28,1.58,6,2.46,2.72,.92,4.93,1.8,6.63,2.64s3.17,2.06,4.41,3.66c1.24,1.6,1.86,3.66,1.86,6.18s-.61,4.58-1.83,6.54c-1.22,1.96-2.99,3.52-5.31,4.68-2.32,1.16-5.06,1.74-8.22,1.74s-5.84-.5-8.28-1.5Z"/>
        <path class="cls-2" d="M110.26,29.28v25.2c0,2.52,.62,4.46,1.86,5.82,1.24,1.36,3.06,2.04,5.46,2.04s4.24-.68,5.52-2.04c1.28-1.36,1.92-3.3,1.92-5.82V29.28h10.26v25.14c0,3.76-.8,6.94-2.4,9.54-1.6,2.6-3.75,4.56-6.45,5.88-2.7,1.32-5.71,1.98-9.03,1.98s-6.29-.65-8.91-1.95c-2.62-1.3-4.69-3.26-6.21-5.88-1.52-2.62-2.28-5.81-2.28-9.57V29.28h10.26Z"/>
        <path class="cls-2" d="M190.18,29.28v42.12h-10.26v-25.26l-9.42,25.26h-8.28l-9.48-25.32v25.32h-10.26V29.28h12.12l11.82,29.16,11.7-29.16h12.06Z"/>
        <path class="cls-2" d="M228.94,53.43c1.48,1.9,2.22,4.07,2.22,6.51,0,3.52-1.23,6.31-3.69,8.37-2.46,2.06-5.89,3.09-10.29,3.09h-19.62V29.28h18.96c4.28,0,7.63,.98,10.05,2.94,2.42,1.96,3.63,4.62,3.63,7.98,0,2.48-.65,4.54-1.95,6.18-1.3,1.64-3.03,2.78-5.19,3.42,2.44,.52,4.4,1.73,5.88,3.63Zm-21.12-7.11h6.72c1.68,0,2.97-.37,3.87-1.11,.9-.74,1.35-1.83,1.35-3.27s-.45-2.54-1.35-3.3c-.9-.76-2.19-1.14-3.87-1.14h-6.72v8.82Zm11.55,15.63c.94-.78,1.41-1.91,1.41-3.39s-.49-2.64-1.47-3.48c-.98-.84-2.33-1.26-4.05-1.26h-7.44v9.3h7.56c1.72,0,3.05-.39,3.99-1.17Z"/>
        <path class="cls-2" d="M247.36,29.28v42.12h-10.26V29.28h10.26Z"/>
        <path class="cls-2" d="M285.1,29.28v8.22h-11.16v33.9h-10.26V37.5h-11.16v-8.22h32.58Z"/>
      </g>
    </g>
  </g>
</svg>