<?xml version="1.0" encoding="UTF-8"?>
<svg id="Layer_2" data-name="Layer 2" xmlns="http://www.w3.org/2000/svg" xmlns:xlink="http://www.w3.org/1999/xlink" viewBox="0 0 508 106">
  <defs>
    <style>
      .cls-1 {
        fill: url(#linear-gradient);
        filter: url(#drop-shadow-1);
        stroke: #fff;
        stroke-miterlimit: 10;
        stroke-width: 4.58px;
      }

      .cls-2 {
        fill: #fffdfe;
      }

      .cls-3 {
        filter: url(#drop-shadow-2);
      }
    </style>
    <linearGradient id="linear-gradient" x1="-33.95" y1="-44.3" x2="467.39" y2="121.16" gradientUnits="userSpaceOnUse">
      <stop offset="0" stop-color="#e01f76"/>
      <stop offset="1" stop-color="#ee962f"/>
    </linearGradient>
    <filter id="drop-shadow-1" filterUnits="userSpaceOnUse">
      <feOffset dx="3.44" dy="3.44"/>
      <feGaussianBlur result="blur" stdDeviation="1.15"/>
      <feFlood flood-color="#000" flood-opacity=".4"/>
      <feComposite in2="blur" operator="in"/>
      <feComposite in="SourceGraphic"/>
    </filter>
    <filter id="drop-shadow-2" filterUnits="userSpaceOnUse">
      <feOffset dx="3" dy="3"/>
      <feGaussianBlur result="blur-2" stdDeviation="1"/>
      <feFlood flood-color="#000" flood-opacity=".4"/>
      <feComposite in2="blur-2" operator="in"/>
      <feComposite in="SourceGraphic"/>
    </filter>
  </defs>
  <g id="Layer_1-2" data-name="Layer 1">
    <g>
      <rect class="cls-1" x="3.24" y="2.95" width="494.81" height="93.35" rx="21.82" ry="21.82"/>
      <g>
        <g class="cls-3">
          <path class="cls-2" d="M68.69,33.1c3.32,1.76,5.89,4.23,7.71,7.41,1.82,3.18,2.73,6.85,2.73,11.01s-.91,7.78-2.73,10.98c-1.82,3.2-4.4,5.68-7.74,7.44-3.34,1.76-7.21,2.64-11.61,2.64h-15.78V30.46h15.78c4.44,0,8.32,.88,11.64,2.64Zm-3.24,27.42c2.16-2.12,3.24-5.12,3.24-9s-1.08-6.9-3.24-9.06c-2.16-2.16-5.18-3.24-9.06-3.24h-4.86v24.48h4.86c3.88,0,6.9-1.06,9.06-3.18Z"/>
          <path class="cls-2" d="M93.92,70.24c-3.3-1.84-5.92-4.41-7.86-7.71s-2.91-7.01-2.91-11.13,.97-7.82,2.91-11.1c1.94-3.28,4.56-5.84,7.86-7.68s6.93-2.76,10.89-2.76,7.59,.92,10.89,2.76,5.9,4.4,7.8,7.68c1.9,3.28,2.85,6.98,2.85,11.1s-.96,7.83-2.88,11.13-4.52,5.87-7.8,7.71c-3.28,1.84-6.9,2.76-10.86,2.76s-7.59-.92-10.89-2.76Zm18.96-9.96c2.02-2.24,3.03-5.2,3.03-8.88s-1.01-6.69-3.03-8.91c-2.02-2.22-4.71-3.33-8.07-3.33s-6.11,1.1-8.13,3.3c-2.02,2.2-3.03,5.18-3.03,8.94s1.01,6.69,3.03,8.91c2.02,2.22,4.73,3.33,8.13,3.33s6.05-1.12,8.07-3.36Z"/>
          <path class="cls-2" d="M190.01,30.46l-10.98,42.12h-12.42l-6.72-27.72-6.96,27.72h-12.42l-10.68-42.12h10.98l6.06,30.66,7.5-30.66h11.28l7.2,30.66,6.12-30.66h11.04Z"/>
          <path class="cls-2" d="M232.85,72.58h-10.26l-17.16-25.98v25.98h-10.26V30.46h10.26l17.16,26.1V30.46h10.26v42.12Z"/>
          <path class="cls-2" d="M250.55,64.66h13.44v7.92h-23.7V30.46h10.26v34.2Z"/>
          <path class="cls-2" d="M277.94,70.24c-3.3-1.84-5.92-4.41-7.86-7.71s-2.91-7.01-2.91-11.13,.97-7.82,2.91-11.1c1.94-3.28,4.56-5.84,7.86-7.68s6.93-2.76,10.89-2.76,7.59,.92,10.89,2.76,5.9,4.4,7.8,7.68c1.9,3.28,2.85,6.98,2.85,11.1s-.96,7.83-2.88,11.13-4.52,5.87-7.8,7.71c-3.28,1.84-6.9,2.76-10.86,2.76s-7.59-.92-10.89-2.76Zm18.96-9.96c2.02-2.24,3.03-5.2,3.03-8.88s-1.01-6.69-3.03-8.91c-2.02-2.22-4.71-3.33-8.07-3.33s-6.11,1.1-8.13,3.3c-2.02,2.2-3.03,5.18-3.03,8.94s1.01,6.69,3.03,8.91c2.02,2.22,4.73,3.33,8.13,3.33s6.05-1.12,8.07-3.36Z"/>
          <path class="cls-2" d="M342.29,65.14h-15.72l-2.52,7.44h-10.74l15.24-42.12h11.88l15.24,42.12h-10.86l-2.52-7.44Zm-2.64-7.92l-5.22-15.42-5.16,15.42h10.38Z"/>
          <path class="cls-2" d="M387.71,33.1c3.32,1.76,5.89,4.23,7.71,7.41,1.82,3.18,2.73,6.85,2.73,11.01s-.91,7.78-2.73,10.98c-1.82,3.2-4.4,5.68-7.74,7.44-3.34,1.76-7.21,2.64-11.61,2.64h-15.78V30.46h15.78c4.44,0,8.32,.88,11.64,2.64Zm-3.24,27.42c2.16-2.12,3.24-5.12,3.24-9s-1.08-6.9-3.24-9.06c-2.16-2.16-5.18-3.24-9.06-3.24h-4.86v24.48h4.86c3.88,0,6.9-1.06,9.06-3.18Z"/>
        </g>
        <g>
          <path class="cls-2" d="M447.93,71.93c-6.64,0-13.28,0-19.91,0-1.4,0-2.51-.89-2.83-2.24-.07-.29-.08-.59-.08-.88,0-1.06,0-2.11,0-3.17,0-1.67,.04-3.34,.02-5.01-.01-.97,0-1.94,0-2.91,0-1.44,.94-2.59,2.31-2.88,1.78-.37,3.45,.97,3.45,2.78,0,2.72,0,5.44,0,8.16,0,.41,0,.41,.41,.41,11.11,0,22.22,0,33.33,0,.31,0,.38-.1,.38-.39,0-2.67,0-5.34,0-8.01,0-1.06,.39-1.94,1.29-2.52,.94-.61,1.94-.67,2.93-.16,1,.52,1.54,1.39,1.54,2.52,.02,2.85,0,5.7,0,8.55,0,.93,0,1.86,0,2.79,0,1.73-1.23,2.96-2.95,2.96-6.63,0-13.26,0-19.88,0Z"/>
          <path class="cls-2" d="M445.05,50.59c0-.16,0-.3,0-.44,0-6.93,0-13.87,0-20.8,0-1.06,.37-1.95,1.26-2.54,.95-.64,1.97-.71,2.98-.17,1,.53,1.53,1.39,1.53,2.53,.01,3.44,0,6.88,0,10.33,0,3.59,0,7.18,0,10.77v.36c.15-.01,.2-.12,.27-.19,1.82-1.82,3.63-3.64,5.45-5.46,.27-.27,.53-.53,.8-.79,1.16-1.08,2.96-1.05,4.04,.06,1.12,1.14,1.11,2.94-.03,4.09-2.13,2.14-4.27,4.27-6.4,6.4-1.64,1.64-3.27,3.27-4.91,4.91-1.23,1.23-3.04,1.19-4.26-.04-3.17-3.19-6.36-6.37-9.54-9.55-.59-.59-1.18-1.17-1.76-1.77-.78-.81-1.01-1.78-.7-2.85,.33-1.1,1.09-1.78,2.22-1.99,.99-.19,1.87,.08,2.59,.79,2.05,2.05,4.1,4.1,6.15,6.14,.07,.07,.13,.18,.3,.21Z"/>
        </g>
      </g>
    </g>
  </g>
</svg>