<?xml version="1.0" encoding="UTF-8"?>
<svg id="Layer_2" data-name="Layer 2" xmlns="http://www.w3.org/2000/svg" xmlns:xlink="http://www.w3.org/1999/xlink" viewBox="0 0 367.93 292.97">
  <defs>
    <style>
      .cls-1 {
        fill: url(#linear-gradient-2);
      }

      .cls-2 {
        fill: url(#linear-gradient);
      }
    </style>
    <linearGradient id="linear-gradient" x1="67.9" y1="-47.02" x2="316.07" y2="299.19" gradientUnits="userSpaceOnUse">
      <stop offset="0" stop-color="#e01f76"/>
      <stop offset="1" stop-color="#ee962f"/>
    </linearGradient>
    <linearGradient id="linear-gradient-2" x1="15.44" y1="-9.41" x2="263.61" y2="336.8" xlink:href="#linear-gradient"/>
  </defs>
  <g id="Layer_1-2" data-name="Layer 1">
    <g>
      <path class="cls-2" d="M0,146.5c1.5-1.81,2.77-3.9,4.54-5.39C57.77,96.69,111.03,52.32,164.31,7.96c12.78-10.64,26.57-10.61,39.37,.06,16.65,13.88,33.26,27.8,49.88,41.7,.9,.75,1.84,1.46,3.27,2.6,.09-1.66,.2-2.78,.2-3.89,.01-12.69,0-25.39,.02-38.08,.01-7.27,2.39-9.6,9.73-9.61,13.05-.02,26.11-.02,39.16,0,6.99,.02,9.5,2.55,9.5,9.57,.01,29.1,.05,58.2-.06,87.3,0,2.69,.84,4.36,2.87,6.03,14.99,12.31,29.87,24.75,44.8,37.14,6.08,5.04,6.42,8.49,1.41,14.47-3.69,4.41-7.36,8.83-11.08,13.21-4.13,4.86-8.07,5.2-12.98,1.11-50.58-42.16-101.16-84.34-151.74-126.51-1.47-1.22-2.94-2.43-4.69-3.88-5.73,4.77-11.42,9.48-17.09,14.21-46.35,38.64-92.69,77.29-139.04,115.94-5.28,4.41-9.13,4.09-13.5-1.15C9.51,162.41,4.77,156.6,0,150.81c0-1.44,0-2.87,0-4.31Z"/>
      <path class="cls-1" d="M213.28,292.7v-87.13h-58.56v87.38c-1.79,0-3.08,0-4.37,0-26.82,0-53.64,0-80.46,0-11.68,0-17.41-5.74-17.41-17.42,0-34.72,.01-69.45-.04-104.17,0-2.42,.46-4.19,2.5-5.87,41.99-34.51,83.91-69.1,125.85-103.67,1-.82,2.05-1.59,3.25-2.52,9.43,7.76,18.75,15.43,28.06,23.11,33.53,27.64,67.05,55.3,100.62,82.89,1.94,1.59,2.77,3.21,2.76,5.74-.08,35.32-.03,70.65-.07,105.97,0,9.6-6.07,15.87-15.64,15.9-28.02,.09-56.04,.03-84.06,.02-.69,0-1.38-.13-2.45-.24Z"/>
    </g>
  </g>
</svg>