<?xml version="1.0" encoding="UTF-8"?>
<svg id="Layer_2" data-name="Layer 2" xmlns="http://www.w3.org/2000/svg" xmlns:xlink="http://www.w3.org/1999/xlink" viewBox="0 0 507 106">
  <defs>
    <style>
      .cls-1 {
        fill: url(#linear-gradient);
        filter: url(#drop-shadow-1);
        stroke: #fff;
        stroke-miterlimit: 10;
        stroke-width: 4.58px;
      }

      .cls-2 {
        fill: #fffdfe;
      }

      .cls-3 {
        filter: url(#drop-shadow-2);
      }
    </style>
    <linearGradient id="linear-gradient" x1="-34.83" y1="-44.3" x2="466.51" y2="121.16" gradientUnits="userSpaceOnUse">
      <stop offset="0" stop-color="#e01f76"/>
      <stop offset="1" stop-color="#ee962f"/>
    </linearGradient>
    <filter id="drop-shadow-1" filterUnits="userSpaceOnUse">
      <feOffset dx="3.44" dy="3.44"/>
      <feGaussianBlur result="blur" stdDeviation="1.15"/>
      <feFlood flood-color="#000" flood-opacity=".4"/>
      <feComposite in2="blur" operator="in"/>
      <feComposite in="SourceGraphic"/>
    </filter>
    <filter id="drop-shadow-2" filterUnits="userSpaceOnUse">
      <feOffset dx="3" dy="3"/>
      <feGaussianBlur result="blur-2" stdDeviation="1"/>
      <feFlood flood-color="#000" flood-opacity=".4"/>
      <feComposite in2="blur-2" operator="in"/>
      <feComposite in="SourceGraphic"/>
    </filter>
  </defs>
  <g id="Layer_1-2" data-name="Layer 1">
    <g>
      <rect class="cls-1" x="2.37" y="2.95" width="494.81" height="93.35" rx="21.82" ry="21.82"/>
      <g>
        <g class="cls-3">
          <path class="cls-2" d="M207.53,74.59l-5.4-7.26c-1.6,.32-3.16,.48-4.68,.48-3.96,0-7.59-.92-10.89-2.76s-5.92-4.41-7.86-7.71-2.91-7.01-2.91-11.13,.97-7.82,2.91-11.1c1.94-3.28,4.56-5.84,7.86-7.68s6.93-2.76,10.89-2.76,7.59,.92,10.89,2.76,5.9,4.4,7.8,7.68c1.9,3.28,2.85,6.98,2.85,11.1,0,3.6-.73,6.89-2.19,9.87-1.46,2.98-3.49,5.45-6.09,7.41l9.24,11.1h-12.42Zm-18.21-19.47c2.02,2.22,4.73,3.33,8.13,3.33s6.05-1.12,8.07-3.36c2.02-2.24,3.03-5.2,3.03-8.88s-1.01-6.69-3.03-8.91c-2.02-2.22-4.71-3.33-8.07-3.33s-6.11,1.1-8.13,3.3c-2.02,2.2-3.03,5.18-3.03,8.94s1.01,6.69,3.03,8.91Z"/>
          <path class="cls-2" d="M246.29,67.39l-8.76-15.9h-2.46v15.9h-10.26V25.27h17.22c3.32,0,6.15,.58,8.49,1.74s4.09,2.75,5.25,4.77c1.16,2.02,1.74,4.27,1.74,6.75,0,2.8-.79,5.3-2.37,7.5-1.58,2.2-3.91,3.76-6.99,4.68l9.72,16.68h-11.58Zm-11.22-23.16h6.36c1.88,0,3.29-.46,4.23-1.38,.94-.92,1.41-2.22,1.41-3.9s-.47-2.86-1.41-3.78c-.94-.92-2.35-1.38-4.23-1.38h-6.36v10.44Z"/>
        </g>
        <g>
          <path class="cls-2" d="M311.22,49.56h1.76v-1.74h1.89v1.87h-1.76v1.79h-1.99v-1.72h-1.61c-.03,.56-.05,1.11-.08,1.72h-3.71v-1.77c-.47,0-.86-.02-1.25,0-.47,.03-.62-.15-.62-.62,.02-1.46,0-2.93,0-4.4,0-.13-.03-.26-.05-.47h-1.7v-1.86h1.87v1.7h1.66v-5.21h-1.64v1.75h-1.9v-3.7h1.76v-5.5h7.35v1.89c-.52,.03-1.07,.06-1.72,.1v1.7h-1.95c-.03-.54-.05-1.07-.08-1.67h-1.57v3.42h3.57v1.8h1.77v10.92Zm-1.93-3.39h-3.41v1.51c.59,.05,1.31-.1,1.6,.19,.28,.28,.13,1.01,.17,1.54,0,.04,.04,.07,.07,.12h1.57v-3.36Zm0-5.44h-1.6v3.31h1.6v-3.31Z"/>
          <path class="cls-2" d="M325.82,47.82v1.85c-.6,.03-1.18,.06-1.82,.09v1.76h-1.72v3.47c.53,.02,1.08,.05,1.69,.08v3.6h1.84v1.89c-.57,.03-1.16,.05-1.82,.08v1.82h-1.72v1.66h3.54v1.96h-3.53v1.66c.54,.02,1.09,.05,1.67,.07v1.91h-3.68v-3.73h1.75v-1.72h-3.55v-1.92h3.55v-1.72h-1.76v-3.56c-.64-.03-1.21-.05-1.81-.08v-1.92c.57-.03,1.12-.05,1.7-.08v-1.62c-.99,0-1.95-.02-2.91,0-.53,.02-.7-.15-.69-.69,.03-2.03,.01-4.06,.01-6.09,0-.18,.02-.35,.04-.59h3.71v3.52h1.74v-1.71h3.77Zm-5.43,7.38v1.65h1.62v-1.65h-1.62Zm-.24-5.41h-1.55v1.52h1.55v-1.52Zm3.65,10.63v-1.53h-1.53v1.53h1.53Z"/>
          <path class="cls-2" d="M314.79,58.87h-1.62c-.03,.55-.06,1.1-.09,1.71h-1.78v3.6h-1.93v-3.56h-1.82v-1.95h1.74v-1.65c-.44,0-.88-.01-1.32,0-.35,.01-.49-.14-.47-.48,.02-.43,0-.85,0-1.33h-1.65v7.11h1.73v1.87h-3.72v-3.58h-1.76v-5.57h3.59v-1.76h1.92v1.69h5.37v-1.67h1.92v1.71h1.78v3.65h1.84v1.94h-1.82v1.83h-1.9v-3.56Zm-3.49-.24h1.61v-1.51h-1.61v1.51Z"/>
          <path class="cls-2" d="M287.49,31.38h12.76v12.8h-12.76v-12.8Zm1.98,10.89h8.87v-8.84h-8.87v8.84Z"/>
          <path class="cls-2" d="M325.8,44.2h-12.77v-12.8h12.77v12.8Zm-10.85-1.94h8.85v-8.86h-8.85v8.86Z"/>
          <path class="cls-2" d="M287.5,56.93h12.77v12.81h-12.77v-12.81Zm10.86,1.95h-8.88v8.84h8.88v-8.84Z"/>
          <path class="cls-2" d="M300.32,53.41v1.71h-7.34v-1.7h-1.73v1.68h-1.88v-1.82h1.67v-3.51c-.54-.03-1.09-.06-1.7-.1v-1.77h-1.84v-1.9h3.71v1.69c.28,.03,.47,.05,.67,.06q1.19,.03,1.2,1.25c0,.7,.01,1.4,.02,2.09,0,.06,.03,.13,.06,.27,.54,.03,1.09,.06,1.71,.09v1.74h1.74v-7.19h5.52v1.85h-3.53v1.71h1.7v1.86h1.85v1.89c-.58,.03-1.15,.06-1.83,.09Zm-.18-1.81h-1.54v1.6h1.54v-1.6Z"/>
          <path class="cls-2" d="M283.06,36.47h-2.74c0-2.99-.18-5.97,.06-8.91,.18-2.12,1.81-3.31,3.98-3.38,2.61-.08,5.22-.06,7.84-.07,.11,0,.22,.03,.35,.05v2.82c-.27,0-.53,0-.78,0-2.41,.01-4.82,0-7.23,.05-.99,.02-1.41,.43-1.43,1.41-.05,2.39-.04,4.78-.05,7.16,0,.27,0,.53,0,.87Z"/>
          <path class="cls-2" d="M332.94,36.46h-2.84c0-.29,0-.56,0-.82,0-2.37,0-4.73-.04-7.1-.02-1.12-.4-1.5-1.53-1.52-2.36-.05-4.73-.04-7.1-.05-.26,0-.53,0-.82,0v-2.81c.15-.02,.3-.07,.45-.06,2.61,.02,5.23,0,7.84,.08,2.27,.06,3.94,1.72,4,4,.07,2.63,.06,5.27,.08,7.9,0,.11-.02,.22-.04,.38Z"/>
          <path class="cls-2" d="M292.55,74.02v2.87c-.27,0-.51,0-.76,0-2.52-.02-5.05-.01-7.57-.08-2.09-.06-3.82-1.55-3.92-3.64-.14-2.85-.03-5.71-.03-8.62h2.79c0,.23,0,.47,0,.71,0,2.12,0,4.24,0,6.35,0,.36,.02,.72,.05,1.08,.08,.81,.47,1.25,1.29,1.26,2.43,.04,4.87,.04,7.3,.06,.27,0,.53,0,.85,0Z"/>
          <path class="cls-2" d="M330.1,64.52h2.8c.02,.12,.07,.22,.07,.33-.02,2.7,0,5.41-.09,8.11-.06,2.05-1.71,3.77-3.74,3.84-2.77,.1-5.54,.07-8.31,.09-.06,0-.13-.04-.22-.06v-2.8c.25,0,.51,0,.77,0,2.41-.01,4.82,0,7.23-.05,1.02-.02,1.42-.42,1.44-1.46,.05-2.34,.03-4.69,.04-7.03,0-.29,0-.58,0-.95Z"/>
          <path class="cls-2" d="M305.75,66.04v1.85h-1.77v1.83h-1.89v-3.68h3.66Z"/>
          <path class="cls-2" d="M318.52,66.03v3.69h-1.88v-3.69h1.88Z"/>
          <path class="cls-2" d="M311.16,67.83h1.88v1.9h-1.88v-1.9Z"/>
          <path class="cls-2" d="M307.56,67.84h1.84v1.88h-1.84v-1.88Z"/>
          <path class="cls-2" d="M313.02,66.07v-1.88h1.84v1.88h-1.84Z"/>
          <path class="cls-2" d="M296.74,35.06c0,1.78,0,3.51-.02,5.24,0,.12-.28,.34-.43,.35-1.58,.02-3.16,.03-4.73,0-.16,0-.45-.25-.45-.39-.03-1.71-.02-3.42-.02-5.19h5.66Z"/>
          <path class="cls-2" d="M322.21,35.05c0,1.78,0,3.49-.02,5.2,0,.14-.25,.39-.38,.39-1.62,.03-3.25,.02-4.87,0-.13,0-.37-.22-.37-.34-.02-1.73-.02-3.46-.02-5.25h5.66Z"/>
          <path class="cls-2" d="M291.12,66.08v-5.61c.64,0,1.24,0,1.84,0,1.08,0,2.16-.01,3.25,.02,.18,0,.51,.21,.51,.34,.03,1.73,.02,3.46,.02,5.25h-5.62Z"/>
        </g>
      </g>
    </g>
  </g>
</svg>