<?xml version="1.0" encoding="UTF-8"?>
<svg id="Layer_2" data-name="Layer 2" xmlns="http://www.w3.org/2000/svg" xmlns:xlink="http://www.w3.org/1999/xlink" viewBox="0 0 936 56.88">
  <defs>
    <style>
      .cls-1 {
        fill: url(#linear-gradient);
      }
    </style>
    <linearGradient id="linear-gradient" x1="-32.72" y1="-90.06" x2="936.98" y2="145.86" gradientUnits="userSpaceOnUse">
      <stop offset="0" stop-color="#df1a79"/>
      <stop offset=".15" stop-color="#e02572"/>
      <stop offset=".43" stop-color="#e4445f"/>
      <stop offset=".79" stop-color="#ea7641"/>
      <stop offset="1" stop-color="#ee962f"/>
    </linearGradient>
  </defs>
  <g id="Layer_1-2" data-name="Layer 1">
    <path class="cls-1" d="M30.88,55.92l-11.6-16.56h-3.76v16.56H0V.96H26.32c4.05,0,7.68,.81,10.88,2.44,3.2,1.63,5.69,3.89,7.48,6.8,1.79,2.91,2.68,6.23,2.68,9.96,0,4-1.04,7.53-3.12,10.6-2.08,3.07-4.93,5.35-8.56,6.84l12.88,18.32H30.88ZM15.52,25.28h9.52c1.81,0,3.32-.48,4.52-1.44s1.8-2.19,1.8-3.68-.6-2.72-1.8-3.68-2.71-1.44-4.52-1.44H15.52v10.24ZM99.92,14.8h-28.72v6.16h26.16v13.84h-26.16v7.28h28.72v13.84H55.68V.96h44.24V14.8Zm47.36,41.12l-2.8-7.36h-19.12l-2.8,7.36h-17.52L126.16,.96h17.52l21.12,54.96h-17.52Zm-17.52-18.8h10.32l-5.12-13.36-5.2,13.36ZM191.36,.96c6.35,0,12,1.17,16.96,3.52,4.96,2.35,8.84,5.6,11.64,9.76,2.8,4.16,4.2,8.88,4.2,14.16s-1.4,10.01-4.2,14.2c-2.8,4.19-6.68,7.45-11.64,9.8-4.96,2.35-10.61,3.52-16.96,3.52h-20.48V.96h20.48Zm9.88,39.16c2.16-1.15,3.85-2.75,5.08-4.8,1.23-2.05,1.84-4.36,1.84-6.92s-.61-4.85-1.84-6.88c-1.23-2.03-2.92-3.61-5.08-4.76-2.16-1.15-4.6-1.72-7.32-1.72h-7.52v26.8h7.52c2.72,0,5.16-.57,7.32-1.72Zm42.12-2.28L222.24,.96h17.76l11.12,22.32L262.88,.96h17.04l-21.04,36.88v18.08h-15.52v-18.08Zm76.56-23.04h-16.24V.96h48V14.8h-16.24V55.92h-15.52V14.8Zm49.12,38.2c-4.59-2.59-8.24-6.07-10.96-10.44-2.72-4.37-4.08-9.09-4.08-14.16s1.36-9.77,4.08-14.12c2.72-4.35,6.37-7.81,10.96-10.4,4.59-2.59,9.55-3.88,14.88-3.88s10.29,1.29,14.88,3.88c4.59,2.59,8.24,6.05,10.96,10.4,2.72,4.35,4.08,9.05,4.08,14.12s-1.36,9.79-4.08,14.16c-2.72,4.37-6.37,7.85-10.96,10.44-4.59,2.59-9.55,3.88-14.88,3.88s-10.29-1.29-14.88-3.88Zm21.76-12.16c2.13-1.31,3.84-3.07,5.12-5.28,1.28-2.21,1.92-4.6,1.92-7.16s-.64-4.93-1.92-7.12c-1.28-2.19-2.99-3.93-5.12-5.24-2.13-1.31-4.43-1.96-6.88-1.96s-4.75,.65-6.88,1.96c-2.13,1.31-3.84,3.05-5.12,5.24-1.28,2.19-1.92,4.56-1.92,7.12s.64,4.95,1.92,7.16c1.28,2.21,2.99,3.97,5.12,5.28,2.13,1.31,4.43,1.96,6.88,1.96s4.75-.65,6.88-1.96ZM463.12,.96c6.35,0,12,1.17,16.96,3.52,4.96,2.35,8.84,5.6,11.64,9.76,2.8,4.16,4.2,8.88,4.2,14.16s-1.4,10.01-4.2,14.2c-2.8,4.19-6.68,7.45-11.64,9.8-4.96,2.35-10.61,3.52-16.96,3.52h-20.48V.96h20.48Zm9.88,39.16c2.16-1.15,3.85-2.75,5.08-4.8,1.23-2.05,1.84-4.36,1.84-6.92s-.61-4.85-1.84-6.88c-1.23-2.03-2.92-3.61-5.08-4.76-2.16-1.15-4.6-1.72-7.32-1.72h-7.52v26.8h7.52c2.72,0,5.16-.57,7.32-1.72Zm41.8,12.88c-4.59-2.59-8.24-6.07-10.96-10.44-2.72-4.37-4.08-9.09-4.08-14.16s1.36-9.77,4.08-14.12c2.72-4.35,6.37-7.81,10.96-10.4,4.59-2.59,9.55-3.88,14.88-3.88s10.29,1.29,14.88,3.88c4.59,2.59,8.24,6.05,10.96,10.4,2.72,4.35,4.08,9.05,4.08,14.12s-1.36,9.79-4.08,14.16c-2.72,4.37-6.37,7.85-10.96,10.44-4.59,2.59-9.55,3.88-14.88,3.88s-10.29-1.29-14.88-3.88Zm21.76-12.16c2.13-1.31,3.84-3.07,5.12-5.28,1.28-2.21,1.92-4.6,1.92-7.16s-.64-4.93-1.92-7.12c-1.28-2.19-2.99-3.93-5.12-5.24-2.13-1.31-4.43-1.96-6.88-1.96s-4.75,.65-6.88,1.96c-2.13,1.31-3.84,3.05-5.12,5.24-1.28,2.19-1.92,4.56-1.92,7.12s.64,4.95,1.92,7.16c1.28,2.21,2.99,3.97,5.12,5.28,2.13,1.31,4.43,1.96,6.88,1.96s4.75-.65,6.88-1.96ZM559.44,.96h16.72l6.72,31.76,10.64-31.76h16.72l10.56,31.76,6.72-31.76h16.72l-15.2,54.96h-15.68l-11.44-31.76-11.52,31.76h-15.68L559.44,.96Zm91.2,0h15.52l21.44,29.44V.96h15.52V55.92h-15.52l-21.44-29.44v29.44h-15.52V.96Zm78.56,41.12h25.6v13.84h-41.12V.96h15.52V42.08Zm70.24,13.84l-2.8-7.36h-19.12l-2.8,7.36h-17.52L778.32,.96h17.52l21.12,54.96h-17.52Zm-17.52-18.8h10.32l-5.12-13.36-5.2,13.36Zm48.8,15.88c-4.59-2.59-8.24-6.07-10.96-10.44-2.72-4.37-4.08-9.09-4.08-14.16s1.36-9.77,4.08-14.12c2.72-4.35,6.37-7.81,10.96-10.4,4.59-2.59,9.55-3.88,14.88-3.88s10.29,1.29,14.88,3.88c4.59,2.59,8.24,6.05,10.96,10.4,2.72,4.35,4.08,9.05,4.08,14.12s-1.36,9.79-4.08,14.16c-2.72,4.37-6.37,7.85-10.96,10.44-4.59,2.59-9.55,3.88-14.88,3.88s-10.29-1.29-14.88-3.88Zm21.76-12.16c2.13-1.31,3.84-3.07,5.12-5.28,1.28-2.21,1.92-4.6,1.92-7.16s-.64-4.93-1.92-7.12c-1.28-2.19-2.99-3.93-5.12-5.24-2.13-1.31-4.43-1.96-6.88-1.96s-4.75,.65-6.88,1.96c-2.13,1.31-3.84,3.05-5.12,5.24-1.28,2.19-1.92,4.56-1.92,7.12s.64,4.95,1.92,7.16c1.28,2.21,2.99,3.97,5.12,5.28,2.13,1.31,4.43,1.96,6.88,1.96s4.75-.65,6.88-1.96ZM903.2,.96c6.35,0,12,1.17,16.96,3.52,4.96,2.35,8.84,5.6,11.64,9.76,2.8,4.16,4.2,8.88,4.2,14.16s-1.4,10.01-4.2,14.2c-2.8,4.19-6.68,7.45-11.64,9.8-4.96,2.35-10.61,3.52-16.96,3.52h-20.48V.96h20.48Zm9.88,39.16c2.16-1.15,3.85-2.75,5.08-4.8,1.23-2.05,1.84-4.36,1.84-6.92s-.61-4.85-1.84-6.88c-1.23-2.03-2.92-3.61-5.08-4.76-2.16-1.15-4.6-1.72-7.32-1.72h-7.52v26.8h7.52c2.72,0,5.16-.57,7.32-1.72Z"/>
  </g>
</svg>