<?xml version="1.0" encoding="UTF-8"?>
<svg id="Layer_2" data-name="Layer 2" xmlns="http://www.w3.org/2000/svg" xmlns:xlink="http://www.w3.org/1999/xlink" viewBox="0 0 776 211">
  <defs>
    <style>
      .cls-1 {
        fill: url(#linear-gradient);
        filter: url(#drop-shadow-1);
      }
    </style>
    <linearGradient id="linear-gradient" x1="56.5" y1="-36.26" x2="583.48" y2="254.81" gradientUnits="userSpaceOnUse">
      <stop offset="0" stop-color="#df1a79"/>
      <stop offset="1" stop-color="#ee962f"/>
    </linearGradient>
    <filter id="drop-shadow-1" filterUnits="userSpaceOnUse">
      <feOffset dx="3" dy="3"/>
      <feGaussianBlur result="blur" stdDeviation="1"/>
      <feFlood flood-color="#000" flood-opacity=".3"/>
      <feComposite in2="blur" operator="in"/>
      <feComposite in="SourceGraphic"/>
    </filter>
  </defs>
  <g id="Layer_1-2" data-name="Layer 1">
    <path class="cls-1" d="M160.89,75.34l-3.74-9.84h-25.55l-3.74,9.84h-23.42L132.67,1.89h23.42l28.23,73.46h-23.42Zm-23.42-25.13h13.79l-6.84-17.86-6.95,17.86ZM192.44,1.89h20.74V75.34h-20.74V1.89Zm95.69,30.47h34.43v31.22c-3.78,4.13-8.34,7.34-13.69,9.62-5.35,2.28-10.91,3.42-16.68,3.42-7.27,0-14.03-1.71-20.26-5.13-6.24-3.42-11.17-8.05-14.81-13.9-3.64-5.84-5.45-12.19-5.45-19.03s1.83-13.17,5.51-18.98c3.67-5.81,8.61-10.42,14.81-13.85s12.94-5.13,20.21-5.13c5.77,0,11.33,1.14,16.68,3.42,5.35,2.28,9.91,5.45,13.69,9.52l-15.29,13.37c-1.85-2.35-4.1-4.19-6.74-5.51-2.64-1.32-5.42-1.98-8.34-1.98-3.42,0-6.59,.87-9.52,2.62-2.92,1.75-5.26,4.08-7,7-1.75,2.92-2.62,6.09-2.62,9.52s.86,6.7,2.57,9.62c1.71,2.92,4.04,5.26,7,7,2.96,1.75,6.15,2.62,9.57,2.62,3.64,0,7.06-1,10.26-2.99v-7.16h-14.33v-15.29Zm86.82,42.98l-15.5-22.13h-5.03v22.13h-20.74V1.89h35.18c5.42,0,10.26,1.09,14.54,3.26,4.28,2.18,7.61,5.2,10,9.09,2.39,3.89,3.58,8.32,3.58,13.31,0,5.35-1.39,10.07-4.17,14.17-2.78,4.1-6.59,7.15-11.44,9.14l17.21,24.49h-23.63Zm-20.53-40.95h12.72c2.42,0,4.44-.64,6.04-1.92,1.6-1.28,2.41-2.92,2.41-4.92s-.8-3.64-2.41-4.92c-1.6-1.28-3.62-1.92-6.04-1.92h-12.72v13.69Zm68.22,37.05c-6.13-3.46-11.01-8.11-14.65-13.95-3.64-5.84-5.45-12.15-5.45-18.93s1.82-13.06,5.45-18.87c3.63-5.81,8.52-10.44,14.65-13.9,6.13-3.46,12.76-5.19,19.89-5.19s13.76,1.73,19.89,5.19c6.13,3.46,11.01,8.09,14.65,13.9,3.64,5.81,5.45,12.1,5.45,18.87s-1.82,13.08-5.45,18.93c-3.63,5.85-8.52,10.5-14.65,13.95-6.13,3.46-12.76,5.19-19.89,5.19s-13.76-1.73-19.89-5.19Zm29.08-16.25c2.85-1.75,5.13-4.1,6.84-7.06,1.71-2.96,2.57-6.15,2.57-9.57s-.85-6.59-2.57-9.52c-1.71-2.92-3.99-5.26-6.84-7-2.85-1.75-5.92-2.62-9.2-2.62s-6.34,.87-9.2,2.62c-2.85,1.75-5.13,4.08-6.84,7-1.71,2.92-2.57,6.09-2.57,9.52s.86,6.61,2.57,9.57c1.71,2.96,3.99,5.31,6.84,7.06,2.85,1.75,5.92,2.62,9.2,2.62s6.34-.87,9.2-2.62Zm55.33,17.11c-5.31-2.89-9.45-6.9-12.4-12.03-2.96-5.13-4.44-10.98-4.44-17.54V1.89h20.74V41.66c0,4.7,1.34,8.57,4.01,11.6,2.67,3.03,6.08,4.54,10.21,4.54s7.54-1.51,10.21-4.54c2.67-3.03,4.01-6.9,4.01-11.6V1.89h20.74V42.73c0,6.56-1.48,12.4-4.44,17.54-2.96,5.13-7.09,9.14-12.4,12.03-5.31,2.89-11.35,4.33-18.12,4.33s-12.81-1.44-18.12-4.33ZM607.51,1.89c5.42,0,10.26,1.09,14.54,3.26,4.28,2.18,7.61,5.2,10,9.09,2.39,3.89,3.58,8.32,3.58,13.31s-1.19,9.43-3.58,13.31c-2.39,3.89-5.72,6.92-10,9.09-4.28,2.18-9.12,3.26-14.54,3.26h-14.43v22.13h-20.74V1.89h35.18Zm4.33,30.58c1.6-1.28,2.41-2.92,2.41-4.92s-.8-3.64-2.41-4.92c-1.6-1.28-3.62-1.92-6.04-1.92h-12.72v13.69h12.72c2.42,0,4.44-.64,6.04-1.92ZM35.42,130.2c5.42,0,10.26,1.09,14.54,3.26,4.28,2.18,7.61,5.2,10,9.09,2.39,3.89,3.58,8.32,3.58,13.31s-1.19,9.43-3.58,13.31c-2.39,3.89-5.72,6.92-10,9.09-4.28,2.18-9.12,3.26-14.54,3.26h-14.43v22.13H.24v-73.46H35.42Zm4.33,30.58c1.6-1.28,2.41-2.92,2.41-4.92s-.8-3.64-2.41-4.92c-1.6-1.28-3.62-1.92-6.04-1.92h-12.72v13.69h12.72c2.42,0,4.44-.64,6.04-1.92Zm80.57-30.58h20.74v73.46h-20.74v-28.23h-26.84v28.23h-20.74v-73.46h20.74v26.73h26.84v-26.73Zm50.47,69.55c-6.13-3.46-11.01-8.11-14.65-13.95-3.64-5.84-5.45-12.15-5.45-18.93s1.82-13.06,5.45-18.87c3.64-5.81,8.52-10.44,14.65-13.9,6.13-3.46,12.76-5.19,19.89-5.19s13.76,1.73,19.89,5.19c6.13,3.46,11.01,8.09,14.65,13.9,3.64,5.81,5.45,12.1,5.45,18.87s-1.82,13.08-5.45,18.93c-3.64,5.85-8.52,10.5-14.65,13.95-6.13,3.46-12.76,5.19-19.89,5.19s-13.76-1.73-19.89-5.19Zm29.08-16.25c2.85-1.75,5.13-4.1,6.84-7.06,1.71-2.96,2.57-6.15,2.57-9.57s-.86-6.59-2.57-9.52c-1.71-2.92-3.99-5.26-6.84-7-2.85-1.75-5.92-2.62-9.2-2.62s-6.35,.87-9.2,2.62c-2.85,1.75-5.13,4.08-6.84,7-1.71,2.92-2.57,6.09-2.57,9.52s.86,6.61,2.57,9.57c1.71,2.96,3.99,5.31,6.84,7.06,2.85,1.75,5.92,2.62,9.2,2.62s6.34-.87,9.2-2.62Zm55.6-34.8h-21.71v-18.5h64.15v18.5h-21.71v54.96h-20.74v-54.96Zm65.65,51.06c-6.13-3.46-11.01-8.11-14.65-13.95-3.64-5.84-5.45-12.15-5.45-18.93s1.82-13.06,5.45-18.87c3.64-5.81,8.52-10.44,14.65-13.9,6.13-3.46,12.76-5.19,19.89-5.19s13.76,1.73,19.89,5.19c6.13,3.46,11.01,8.09,14.65,13.9,3.64,5.81,5.45,12.1,5.45,18.87s-1.82,13.08-5.45,18.93c-3.64,5.85-8.52,10.5-14.65,13.95-6.13,3.46-12.76,5.19-19.89,5.19s-13.76-1.73-19.89-5.19Zm29.08-16.25c2.85-1.75,5.13-4.1,6.84-7.06,1.71-2.96,2.57-6.15,2.57-9.57s-.86-6.59-2.57-9.52c-1.71-2.92-3.99-5.26-6.84-7-2.85-1.75-5.92-2.62-9.2-2.62s-6.35,.87-9.2,2.62c-2.85,1.75-5.13,4.08-6.84,7-1.71,2.92-2.57,6.09-2.57,9.52s.86,6.61,2.57,9.57c1.71,2.96,3.99,5.31,6.84,7.06,2.85,1.75,5.92,2.62,9.2,2.62s6.34-.87,9.2-2.62Zm79.98-53.3c4.63,0,8.75,.8,12.35,2.41,3.6,1.6,6.4,3.8,8.39,6.58,1.99,2.78,2.99,5.95,2.99,9.52s-.89,6.81-2.67,9.73c-1.78,2.92-4.28,5.17-7.48,6.74,4.28,1.78,7.61,4.33,10,7.65,2.39,3.31,3.58,7,3.58,11.07,0,3.85-1.09,7.27-3.26,10.26-2.18,2.99-5.22,5.33-9.14,7-3.92,1.68-8.34,2.51-13.26,2.51h-41.06v-73.46h39.56Zm.27,27c1.39-1.03,2.08-2.37,2.08-4.01s-.7-2.98-2.08-4.01c-1.39-1.03-3.15-1.55-5.29-1.55h-13.9v11.12h13.9c2.14,0,3.9-.52,5.29-1.55Zm3.31,27.37c1.46-1.1,2.19-2.51,2.19-4.22s-.73-3.12-2.19-4.22c-1.46-1.1-3.3-1.66-5.51-1.66h-17v11.76h17c2.21,0,4.04-.55,5.51-1.66Zm46.24,15.18c-6.13-3.46-11.01-8.11-14.65-13.95-3.64-5.84-5.45-12.15-5.45-18.93s1.82-13.06,5.45-18.87c3.63-5.81,8.52-10.44,14.65-13.9,6.13-3.46,12.76-5.19,19.89-5.19s13.76,1.73,19.89,5.19c6.13,3.46,11.01,8.09,14.65,13.9,3.64,5.81,5.45,12.1,5.45,18.87s-1.82,13.08-5.45,18.93c-3.63,5.85-8.52,10.5-14.65,13.95-6.13,3.46-12.76,5.19-19.89,5.19s-13.76-1.73-19.89-5.19Zm29.08-16.25c2.85-1.75,5.13-4.1,6.84-7.06,1.71-2.96,2.57-6.15,2.57-9.57s-.85-6.59-2.57-9.52c-1.71-2.92-3.99-5.26-6.84-7-2.85-1.75-5.92-2.62-9.2-2.62s-6.34,.87-9.2,2.62c-2.85,1.75-5.13,4.08-6.84,7-1.71,2.92-2.57,6.09-2.57,9.52s.86,6.61,2.57,9.57c1.71,2.96,3.99,5.31,6.84,7.06,2.85,1.75,5.92,2.62,9.2,2.62s6.34-.87,9.2-2.62Zm56.03,16.25c-6.13-3.46-11.01-8.11-14.65-13.95-3.64-5.84-5.45-12.15-5.45-18.93s1.82-13.06,5.45-18.87c3.63-5.81,8.52-10.44,14.65-13.9,6.13-3.46,12.76-5.19,19.89-5.19s13.76,1.73,19.89,5.19c6.13,3.46,11.01,8.09,14.65,13.9,3.64,5.81,5.45,12.1,5.45,18.87s-1.82,13.08-5.45,18.93c-3.63,5.85-8.52,10.5-14.65,13.95-6.13,3.46-12.76,5.19-19.89,5.19s-13.76-1.73-19.89-5.19Zm29.08-16.25c2.85-1.75,5.13-4.1,6.84-7.06,1.71-2.96,2.57-6.15,2.57-9.57s-.85-6.59-2.57-9.52c-1.71-2.92-3.99-5.26-6.84-7-2.85-1.75-5.92-2.62-9.2-2.62s-6.34,.87-9.2,2.62c-2.85,1.75-5.13,4.08-6.84,7-1.71,2.92-2.57,6.09-2.57,9.52s.86,6.61,2.57,9.57c1.71,2.96,3.99,5.31,6.84,7.06,2.85,1.75,5.92,2.62,9.2,2.62s6.34-.87,9.2-2.62Zm55.6-34.8h-21.71v-18.5h64.15v18.5h-21.71v54.96h-20.74v-54.96Zm99.22-18.5h20.74v73.46h-20.74v-28.23h-26.84v28.23h-20.74v-73.46h20.74v26.73h26.84v-26.73Z"/>
  </g>
</svg>