<?xml version="1.0" encoding="UTF-8"?>
<svg id="Layer_2" data-name="Layer 2" xmlns="http://www.w3.org/2000/svg" xmlns:xlink="http://www.w3.org/1999/xlink" viewBox="0 0 353 104">
  <defs>
    <style>
      .cls-1 {
        fill: url(#linear-gradient);
        filter: url(#drop-shadow-1);
        stroke: #fff;
        stroke-miterlimit: 10;
        stroke-width: 3.81px;
      }

      .cls-2 {
        fill: #fffdfe;
      }

      .cls-3 {
        filter: url(#drop-shadow-2);
      }
    </style>
    <linearGradient id="linear-gradient" x1="-27.7" y1="-17.62" x2="326.97" y2="99.44" gradientUnits="userSpaceOnUse">
      <stop offset="0" stop-color="#e01f76"/>
      <stop offset="1" stop-color="#ee962f"/>
    </linearGradient>
    <filter id="drop-shadow-1" filterUnits="userSpaceOnUse">
      <feOffset dx="2.86" dy="2.86"/>
      <feGaussianBlur result="blur" stdDeviation=".95"/>
      <feFlood flood-color="#000" flood-opacity=".4"/>
      <feComposite in2="blur" operator="in"/>
      <feComposite in="SourceGraphic"/>
    </filter>
    <filter id="drop-shadow-2" filterUnits="userSpaceOnUse">
      <feOffset dx="3" dy="3"/>
      <feGaussianBlur result="blur-2" stdDeviation="1"/>
      <feFlood flood-color="#000" flood-opacity=".4"/>
      <feComposite in2="blur-2" operator="in"/>
      <feComposite in="SourceGraphic"/>
    </filter>
  </defs>
  <g id="Layer_1-2" data-name="Layer 1">
    <g>
      <rect class="cls-1" x="2.37" y="2.16" width="342.54" height="93.35" rx="18.15" ry="18.15"/>
      <g class="cls-3">
        <path class="cls-2" d="M87.81,70.32c-2.44-1-4.39-2.48-5.85-4.44-1.46-1.96-2.23-4.32-2.31-7.08h10.92c.16,1.56,.7,2.75,1.62,3.57,.92,.82,2.12,1.23,3.6,1.23s2.72-.35,3.6-1.05,1.32-1.67,1.32-2.91c0-1.04-.35-1.9-1.05-2.58-.7-.68-1.56-1.24-2.58-1.68-1.02-.44-2.47-.94-4.35-1.5-2.72-.84-4.94-1.68-6.66-2.52-1.72-.84-3.2-2.08-4.44-3.72-1.24-1.64-1.86-3.78-1.86-6.42,0-3.92,1.42-6.99,4.26-9.21,2.84-2.22,6.54-3.33,11.1-3.33s8.38,1.11,11.22,3.33c2.84,2.22,4.36,5.31,4.56,9.27h-11.1c-.08-1.36-.58-2.43-1.5-3.21s-2.1-1.17-3.54-1.17c-1.24,0-2.24,.33-3,.99s-1.14,1.61-1.14,2.85c0,1.36,.64,2.42,1.92,3.18,1.28,.76,3.28,1.58,6,2.46,2.72,.92,4.93,1.8,6.63,2.64s3.17,2.06,4.41,3.66c1.24,1.6,1.86,3.66,1.86,6.18s-.61,4.58-1.83,6.54c-1.22,1.96-2.99,3.52-5.31,4.68-2.32,1.16-5.06,1.74-8.22,1.74s-5.84-.5-8.28-1.5Z"/>
        <path class="cls-2" d="M148.05,29.28v8.22h-11.16v33.9h-10.26V37.5h-11.16v-8.22h32.58Z"/>
        <path class="cls-2" d="M179.43,63.96h-15.72l-2.52,7.44h-10.74l15.24-42.12h11.88l15.24,42.12h-10.86l-2.52-7.44Zm-2.64-7.92l-5.22-15.42-5.16,15.42h10.38Z"/>
        <path class="cls-2" d="M218.91,71.4l-8.76-15.9h-2.46v15.9h-10.26V29.28h17.22c3.32,0,6.15,.58,8.49,1.74s4.09,2.75,5.25,4.77c1.16,2.02,1.74,4.27,1.74,6.75,0,2.8-.79,5.3-2.37,7.5-1.58,2.2-3.91,3.76-6.99,4.68l9.72,16.68h-11.58Zm-11.22-23.16h6.36c1.88,0,3.29-.46,4.23-1.38,.94-.92,1.41-2.22,1.41-3.9s-.47-2.86-1.41-3.78c-.94-.92-2.35-1.38-4.23-1.38h-6.36v10.44Z"/>
        <path class="cls-2" d="M266.85,29.28v8.22h-11.16v33.9h-10.26V37.5h-11.16v-8.22h32.58Z"/>
      </g>
    </g>
  </g>
</svg>