<?xml version="1.0" encoding="UTF-8"?>
<svg id="Layer_2" data-name="Layer 2" xmlns="http://www.w3.org/2000/svg" xmlns:xlink="http://www.w3.org/1999/xlink" viewBox="0 0 366 104">
  <defs>
    <style>
      .cls-1 {
        fill: url(#linear-gradient);
        filter: url(#drop-shadow-1);
        stroke: #fff;
        stroke-miterlimit: 10;
        stroke-width: 3.88px;
      }

      .cls-2 {
        fill: #fffdfe;
      }

      .cls-3 {
        filter: url(#drop-shadow-2);
      }
    </style>
    <linearGradient id="linear-gradient" x1="-27.87" y1="-19.97" x2="338.66" y2="101" gradientUnits="userSpaceOnUse">
      <stop offset="0" stop-color="#e01f76"/>
      <stop offset="1" stop-color="#ee962f"/>
    </linearGradient>
    <filter id="drop-shadow-1" filterUnits="userSpaceOnUse">
      <feOffset dx="2.91" dy="2.91"/>
      <feGaussianBlur result="blur" stdDeviation=".97"/>
      <feFlood flood-color="#000" flood-opacity=".4"/>
      <feComposite in2="blur" operator="in"/>
      <feComposite in="SourceGraphic"/>
    </filter>
    <filter id="drop-shadow-2" filterUnits="userSpaceOnUse">
      <feOffset dx="3" dy="3"/>
      <feGaussianBlur result="blur-2" stdDeviation="1"/>
      <feFlood flood-color="#000" flood-opacity=".4"/>
      <feComposite in2="blur-2" operator="in"/>
      <feComposite in="SourceGraphic"/>
    </filter>
  </defs>
  <g id="Layer_1-2" data-name="Layer 1">
    <g>
      <rect class="cls-1" x="2.76" y="2.03" width="354.87" height="93.35" rx="18.48" ry="18.48"/>
      <g class="cls-3">
        <path class="cls-2" d="M47.12,39.35c1.8-3.26,4.31-5.8,7.53-7.62,3.22-1.82,6.87-2.73,10.95-2.73,5,0,9.28,1.32,12.84,3.96,3.56,2.64,5.94,6.24,7.14,10.8h-11.28c-.84-1.76-2.03-3.1-3.57-4.02-1.54-.92-3.29-1.38-5.25-1.38-3.16,0-5.72,1.1-7.68,3.3-1.96,2.2-2.94,5.14-2.94,8.82s.98,6.62,2.94,8.82c1.96,2.2,4.52,3.3,7.68,3.3,1.96,0,3.71-.46,5.25-1.38,1.54-.92,2.73-2.26,3.57-4.02h11.28c-1.2,4.56-3.58,8.15-7.14,10.77-3.56,2.62-7.84,3.93-12.84,3.93-4.08,0-7.73-.91-10.95-2.73-3.22-1.82-5.73-4.35-7.53-7.59-1.8-3.24-2.7-6.94-2.7-11.1s.9-7.87,2.7-11.13Z"/>
        <path class="cls-2" d="M118.1,64.16h-15.72l-2.52,7.44h-10.74l15.24-42.12h11.88l15.24,42.12h-10.86l-2.52-7.44Zm-2.64-7.92l-5.22-15.42-5.16,15.42h10.38Z"/>
        <path class="cls-2" d="M166.52,49.73c-1.12,2.02-2.84,3.65-5.16,4.89-2.32,1.24-5.2,1.86-8.64,1.86h-6.36v15.12h-10.26V29.48h16.62c3.36,0,6.2,.58,8.52,1.74,2.32,1.16,4.06,2.76,5.22,4.8,1.16,2.04,1.74,4.38,1.74,7.02,0,2.44-.56,4.67-1.68,6.69Zm-10.2-2.79c.96-.92,1.44-2.22,1.44-3.9s-.48-2.98-1.44-3.9c-.96-.92-2.42-1.38-4.38-1.38h-5.58v10.56h5.58c1.96,0,3.42-.46,4.38-1.38Z"/>
        <path class="cls-2" d="M203.84,29.48v8.22h-11.16v33.9h-10.26V37.7h-11.16v-8.22h32.58Z"/>
        <path class="cls-2" d="M219.08,29.48v25.2c0,2.52,.62,4.46,1.86,5.82,1.24,1.36,3.06,2.04,5.46,2.04s4.24-.68,5.52-2.04c1.28-1.36,1.92-3.3,1.92-5.82V29.48h10.26v25.14c0,3.76-.8,6.94-2.4,9.54-1.6,2.6-3.75,4.56-6.45,5.88-2.7,1.32-5.71,1.98-9.03,1.98s-6.29-.65-8.91-1.95c-2.62-1.3-4.69-3.26-6.21-5.88-1.52-2.62-2.28-5.81-2.28-9.57V29.48h10.26Z"/>
        <path class="cls-2" d="M272.78,71.6l-8.76-15.9h-2.46v15.9h-10.26V29.48h17.22c3.32,0,6.15,.58,8.49,1.74s4.09,2.75,5.25,4.77c1.16,2.02,1.74,4.27,1.74,6.75,0,2.8-.79,5.3-2.37,7.5-1.58,2.2-3.91,3.76-6.99,4.68l9.72,16.68h-11.58Zm-11.22-23.16h6.36c1.88,0,3.29-.46,4.23-1.38,.94-.92,1.41-2.22,1.41-3.9s-.47-2.86-1.41-3.78c-.94-.92-2.35-1.38-4.23-1.38h-6.36v10.44Z"/>
        <path class="cls-2" d="M300.68,37.7v8.52h13.74v7.92h-13.74v9.24h15.54v8.22h-25.8V29.48h25.8v8.22h-15.54Z"/>
      </g>
    </g>
  </g>
</svg>