<?xml version="1.0" encoding="UTF-8"?>
<svg id="Layer_2" data-name="Layer 2" xmlns="http://www.w3.org/2000/svg" xmlns:xlink="http://www.w3.org/1999/xlink" viewBox="0 0 891.12 152.88">
  <defs>
    <style>
      .cls-1 {
        fill: url(#linear-gradient);
      }
    </style>
    <linearGradient id="linear-gradient" x1="29.66" y1="-117.94" x2="720.55" y2="147.08" gradientUnits="userSpaceOnUse">
      <stop offset="0" stop-color="#df1a79"/>
      <stop offset="1" stop-color="#ee962f"/>
    </linearGradient>
  </defs>
  <g id="Layer_1-2" data-name="Layer 1">
    <path class="cls-1" d="M15.04,53c-4.59-2.59-8.24-6.07-10.96-10.44C1.36,38.19,0,33.47,0,28.4s1.36-9.77,4.08-14.12c2.72-4.35,6.37-7.81,10.96-10.4C19.63,1.29,24.59,0,29.92,0c4.32,0,8.41,.85,12.28,2.56,3.87,1.71,7.21,4.08,10.04,7.12l-11.44,10c-1.33-1.71-2.95-3.07-4.84-4.08-1.89-1.01-3.91-1.52-6.04-1.52-2.45,0-4.75,.65-6.88,1.96-2.13,1.31-3.84,3.05-5.12,5.24-1.28,2.19-1.92,4.56-1.92,7.12s.64,4.95,1.92,7.16c1.28,2.21,2.99,3.97,5.12,5.28,2.13,1.31,4.43,1.96,6.88,1.96,2.13,0,4.16-.51,6.08-1.52,1.92-1.01,3.55-2.37,4.88-4.08l11.36,9.92c-2.83,3.04-6.17,5.43-10.04,7.16-3.87,1.73-7.96,2.6-12.28,2.6-5.33,0-10.29-1.29-14.88-3.88Zm80,2.92l-2.8-7.36h-19.12l-2.8,7.36h-17.52L73.92,.96h17.52l21.12,54.96h-17.52Zm-17.52-18.8h10.32l-5.12-13.36-5.2,13.36ZM144.96,.96c4.05,0,7.68,.81,10.88,2.44,3.2,1.63,5.69,3.89,7.48,6.8,1.79,2.91,2.68,6.23,2.68,9.96s-.89,7.05-2.68,9.96c-1.79,2.91-4.28,5.17-7.48,6.8-3.2,1.63-6.83,2.44-10.88,2.44h-10.8v16.56h-15.52V.96h26.32Zm3.24,22.88c1.2-.96,1.8-2.19,1.8-3.68s-.6-2.72-1.8-3.68-2.71-1.44-4.52-1.44h-9.52v10.24h9.52c1.81,0,3.32-.48,4.52-1.44Zm37.24-9.04h-16.24V.96h48V14.8h-16.24V55.92h-15.52V14.8Zm49.8,38.84c-3.97-2.16-7.07-5.16-9.28-9-2.21-3.84-3.32-8.21-3.32-13.12V.96h15.52V30.72c0,3.52,1,6.41,3,8.68,2,2.27,4.55,3.4,7.64,3.4s5.64-1.13,7.64-3.4c2-2.27,3-5.16,3-8.68V.96h15.52V31.52c0,4.91-1.11,9.28-3.32,13.12-2.21,3.84-5.31,6.84-9.28,9-3.97,2.16-8.49,3.24-13.56,3.24s-9.59-1.08-13.56-3.24Zm79.72,2.28l-11.6-16.56h-3.76v16.56h-15.52V.96h26.32c4.05,0,7.68,.81,10.88,2.44,3.2,1.63,5.69,3.89,7.48,6.8,1.79,2.91,2.68,6.23,2.68,9.96,0,4-1.04,7.53-3.12,10.6-2.08,3.07-4.93,5.35-8.56,6.84l12.88,18.32h-17.68Zm-15.36-30.64h9.52c1.81,0,3.32-.48,4.52-1.44s1.8-2.19,1.8-3.68-.6-2.72-1.8-3.68-2.71-1.44-4.52-1.44h-9.52v10.24Zm84.4-10.48h-28.72v6.16h26.16v13.84h-26.16v7.28h28.72v13.84h-44.24V.96h44.24V14.8Zm42.88,38.2c-4.59-2.59-8.24-6.07-10.96-10.44-2.72-4.37-4.08-9.09-4.08-14.16s1.36-9.77,4.08-14.12c2.72-4.35,6.37-7.81,10.96-10.4,4.59-2.59,9.55-3.88,14.88-3.88s10.29,1.29,14.88,3.88c4.59,2.59,8.24,6.05,10.96,10.4,2.72,4.35,4.08,9.05,4.08,14.12s-1.36,9.79-4.08,14.16c-2.72,4.37-6.37,7.85-10.96,10.44-4.59,2.59-9.55,3.88-14.88,3.88s-10.29-1.29-14.88-3.88Zm21.76-12.16c2.13-1.31,3.84-3.07,5.12-5.28,1.28-2.21,1.92-4.6,1.92-7.16s-.64-4.93-1.92-7.12c-1.28-2.19-2.99-3.93-5.12-5.24-2.13-1.31-4.43-1.96-6.88-1.96s-4.75,.65-6.88,1.96c-2.13,1.31-3.84,3.05-5.12,5.24-1.28,2.19-1.92,4.56-1.92,7.12s.64,4.95,1.92,7.16c1.28,2.21,2.99,3.97,5.12,5.28,2.13,1.31,4.43,1.96,6.88,1.96s4.75-.65,6.88-1.96Zm61.12,15.08l-11.6-16.56h-3.76v16.56h-15.52V.96h26.32c4.05,0,7.68,.81,10.88,2.44,3.2,1.63,5.69,3.89,7.48,6.8,1.79,2.91,2.68,6.23,2.68,9.96,0,4-1.04,7.53-3.12,10.6-2.08,3.07-4.93,5.35-8.56,6.84l12.88,18.32h-17.68Zm-15.36-30.64h9.52c1.81,0,3.32-.48,4.52-1.44s1.8-2.19,1.8-3.68-.6-2.72-1.8-3.68-2.71-1.44-4.52-1.44h-9.52v10.24Zm72.92,28.36c-3.97-2.16-7.07-5.16-9.28-9-2.21-3.84-3.32-8.21-3.32-13.12V.96h15.52V30.72c0,3.52,1,6.41,3,8.68,2,2.27,4.55,3.4,7.64,3.4s5.64-1.13,7.64-3.4c2-2.27,3-5.16,3-8.68V.96h15.52V31.52c0,4.91-1.11,9.28-3.32,13.12-2.21,3.84-5.31,6.84-9.28,9-3.97,2.16-8.49,3.24-13.56,3.24s-9.59-1.08-13.56-3.24ZM642.48,.96c4.05,0,7.68,.81,10.88,2.44,3.2,1.63,5.69,3.89,7.48,6.8,1.79,2.91,2.68,6.23,2.68,9.96s-.89,7.05-2.68,9.96c-1.79,2.91-4.28,5.17-7.48,6.8-3.2,1.63-6.83,2.44-10.88,2.44h-10.8v16.56h-15.52V.96h26.32Zm3.24,22.88c1.2-.96,1.8-2.19,1.8-3.68s-.6-2.72-1.8-3.68-2.71-1.44-4.52-1.44h-9.52v10.24h9.52c1.81,0,3.32-.48,4.52-1.44Zm40.2,18.24h25.6v13.84h-41.12V.96h15.52V42.08Zm42.56,10.92c-4.59-2.59-8.24-6.07-10.96-10.44-2.72-4.37-4.08-9.09-4.08-14.16s1.36-9.77,4.08-14.12c2.72-4.35,6.37-7.81,10.96-10.4,4.59-2.59,9.55-3.88,14.88-3.88s10.29,1.29,14.88,3.88c4.59,2.59,8.24,6.05,10.96,10.4,2.72,4.35,4.08,9.05,4.08,14.12s-1.36,9.79-4.08,14.16c-2.72,4.37-6.37,7.85-10.96,10.44-4.59,2.59-9.55,3.88-14.88,3.88s-10.29-1.29-14.88-3.88Zm21.76-12.16c2.13-1.31,3.84-3.07,5.12-5.28,1.28-2.21,1.92-4.6,1.92-7.16s-.64-4.93-1.92-7.12c-1.28-2.19-2.99-3.93-5.12-5.24-2.13-1.31-4.43-1.96-6.88-1.96s-4.75,.65-6.88,1.96c-2.13,1.31-3.84,3.05-5.12,5.24-1.28,2.19-1.92,4.56-1.92,7.12s.64,4.95,1.92,7.16c1.28,2.21,2.99,3.97,5.12,5.28,2.13,1.31,4.43,1.96,6.88,1.96s4.75-.65,6.88-1.96Zm64,15.08l-2.8-7.36h-19.12l-2.8,7.36h-17.52L793.12,.96h17.52l21.12,54.96h-17.52Zm-17.52-18.8h10.32l-5.12-13.36-5.2,13.36ZM858.32,.96c6.35,0,12,1.17,16.96,3.52,4.96,2.35,8.84,5.6,11.64,9.76,2.8,4.16,4.2,8.88,4.2,14.16s-1.4,10.01-4.2,14.2c-2.8,4.19-6.68,7.45-11.64,9.8-4.96,2.35-10.61,3.52-16.96,3.52h-20.48V.96h20.48Zm9.88,39.16c2.16-1.15,3.85-2.75,5.08-4.8,1.23-2.05,1.84-4.36,1.84-6.92s-.61-4.85-1.84-6.88c-1.23-2.03-2.92-3.61-5.08-4.76-2.16-1.15-4.6-1.72-7.32-1.72h-7.52v26.8h7.52c2.72,0,5.16-.57,7.32-1.72ZM206.4,133.84l-21.12-36.88h17.76l11.12,22.32,11.76-22.32h17.04l-21.04,36.88v18.08h-15.52v-18.08Zm49.68,15.16c-4.59-2.59-8.24-6.07-10.96-10.44-2.72-4.37-4.08-9.09-4.08-14.16s1.36-9.77,4.08-14.12c2.72-4.35,6.37-7.81,10.96-10.4,4.59-2.59,9.55-3.88,14.88-3.88s10.29,1.29,14.88,3.88c4.59,2.59,8.24,6.05,10.96,10.4,2.72,4.35,4.08,9.05,4.08,14.12s-1.36,9.79-4.08,14.16c-2.72,4.37-6.37,7.85-10.96,10.44-4.59,2.59-9.55,3.88-14.88,3.88s-10.29-1.29-14.88-3.88Zm21.76-12.16c2.13-1.31,3.84-3.07,5.12-5.28,1.28-2.21,1.92-4.6,1.92-7.16s-.64-4.93-1.92-7.12c-1.28-2.19-2.99-3.93-5.12-5.24-2.13-1.31-4.43-1.96-6.88-1.96s-4.75,.65-6.88,1.96c-2.13,1.31-3.84,3.05-5.12,5.24-1.28,2.19-1.92,4.56-1.92,7.12s.64,4.95,1.92,7.16c1.28,2.21,2.99,3.97,5.12,5.28,2.13,1.31,4.43,1.96,6.88,1.96s4.75-.65,6.88-1.96Zm41.4,12.8c-3.97-2.16-7.07-5.16-9.28-9-2.21-3.84-3.32-8.21-3.32-13.12v-30.56h15.52v29.76c0,3.52,1,6.41,3,8.68,2,2.27,4.55,3.4,7.64,3.4s5.64-1.13,7.64-3.4c2-2.27,3-5.16,3-8.68v-29.76h15.52v30.56c0,4.91-1.11,9.28-3.32,13.12-2.21,3.84-5.31,6.84-9.28,9-3.97,2.16-8.49,3.24-13.56,3.24s-9.59-1.08-13.56-3.24Zm79.72,2.28l-11.6-16.56h-3.76v16.56h-15.52v-54.96h26.32c4.05,0,7.68,.81,10.88,2.44,3.2,1.63,5.69,3.89,7.48,6.8,1.79,2.91,2.68,6.23,2.68,9.96,0,4-1.04,7.53-3.12,10.6-2.08,3.07-4.93,5.35-8.56,6.84l12.88,18.32h-17.68Zm-15.36-30.64h9.52c1.81,0,3.32-.48,4.52-1.44s1.8-2.19,1.8-3.68-.6-2.72-1.8-3.68-2.71-1.44-4.52-1.44h-9.52v10.24Zm61.76-24.32h15.52v54.96h-15.52v-54.96Zm26.08,0h15.52l14.72,26.24,14.72-26.24h15.52v54.96h-15.52v-29.44l-14.72,26.24-14.72-26.24v29.44h-15.52v-54.96Zm108.8,54.96l-2.8-7.36h-19.12l-2.8,7.36h-17.52l21.12-54.96h17.52l21.12,54.96h-17.52Zm-17.52-18.8h10.32l-5.12-13.36-5.2,13.36Zm61.04-13.36h25.76v23.36c-2.83,3.09-6.24,5.49-10.24,7.2-4,1.71-8.16,2.56-12.48,2.56-5.44,0-10.49-1.28-15.16-3.84-4.67-2.56-8.36-6.03-11.08-10.4-2.72-4.37-4.08-9.12-4.08-14.24s1.37-9.85,4.12-14.2c2.75-4.35,6.44-7.8,11.08-10.36s9.68-3.84,15.12-3.84c4.32,0,8.48,.85,12.48,2.56,4,1.71,7.41,4.08,10.24,7.12l-11.44,10c-1.39-1.76-3.07-3.13-5.04-4.12-1.97-.99-4.05-1.48-6.24-1.48-2.56,0-4.93,.65-7.12,1.96-2.19,1.31-3.93,3.05-5.24,5.24-1.31,2.19-1.96,4.56-1.96,7.12s.64,5.01,1.92,7.2c1.28,2.19,3.03,3.93,5.24,5.24,2.21,1.31,4.6,1.96,7.16,1.96,2.72,0,5.28-.75,7.68-2.24v-5.36h-10.72v-11.44Zm78.32-8.96h-28.72v6.16h26.16v13.84h-26.16v7.28h28.72v13.84h-44.24v-54.96h44.24v13.84Z"/>
  </g>
</svg>