<?xml version="1.0" encoding="UTF-8"?>
<svg id="Layer_2" data-name="Layer 2" xmlns="http://www.w3.org/2000/svg" xmlns:xlink="http://www.w3.org/1999/xlink" viewBox="0 0 366 104">
  <defs>
    <style>
      .cls-1 {
        fill: url(#linear-gradient);
        filter: url(#drop-shadow-1);
        stroke: #fff;
        stroke-miterlimit: 10;
        stroke-width: 3.88px;
      }

      .cls-2 {
        fill: #fffdfe;
      }

      .cls-3 {
        filter: url(#drop-shadow-2);
      }
    </style>
    <linearGradient id="linear-gradient" x1="-27.83" y1="-19.47" x2="338.7" y2="101.5" gradientUnits="userSpaceOnUse">
      <stop offset="0" stop-color="#e01f76"/>
      <stop offset="1" stop-color="#ee962f"/>
    </linearGradient>
    <filter id="drop-shadow-1" filterUnits="userSpaceOnUse">
      <feOffset dx="2.91" dy="2.91"/>
      <feGaussianBlur result="blur" stdDeviation=".97"/>
      <feFlood flood-color="#000" flood-opacity=".4"/>
      <feComposite in2="blur" operator="in"/>
      <feComposite in="SourceGraphic"/>
    </filter>
    <filter id="drop-shadow-2" filterUnits="userSpaceOnUse">
      <feOffset dx="3" dy="3"/>
      <feGaussianBlur result="blur-2" stdDeviation="1"/>
      <feFlood flood-color="#000" flood-opacity=".4"/>
      <feComposite in2="blur-2" operator="in"/>
      <feComposite in="SourceGraphic"/>
    </filter>
  </defs>
  <g id="Layer_1-2" data-name="Layer 1">
    <g>
      <rect class="cls-1" x="2.8" y="2.53" width="354.87" height="93.35" rx="18.48" ry="18.48"/>
      <g class="cls-3">
        <path class="cls-2" d="M93.27,72.1l-8.76-15.9h-2.46v15.9h-10.26V29.98h17.22c3.32,0,6.15,.58,8.49,1.74s4.09,2.75,5.25,4.77c1.16,2.02,1.74,4.27,1.74,6.75,0,2.8-.79,5.3-2.37,7.5-1.58,2.2-3.91,3.76-6.99,4.68l9.72,16.68h-11.58Zm-11.22-23.16h6.36c1.88,0,3.29-.46,4.23-1.38,.94-.92,1.41-2.22,1.41-3.9s-.47-2.86-1.41-3.78c-.94-.92-2.35-1.38-4.23-1.38h-6.36v10.44Z"/>
        <path class="cls-2" d="M121.17,38.2v8.52h13.74v7.92h-13.74v9.24h15.54v8.22h-25.8V29.98h25.8v8.22h-15.54Z"/>
        <path class="cls-2" d="M173.67,29.98v8.22h-11.16v33.9h-10.26V38.2h-11.16v-8.22h32.58Z"/>
        <path class="cls-2" d="M205.05,64.66h-15.72l-2.52,7.44h-10.74l15.24-42.12h11.88l15.24,42.12h-10.86l-2.52-7.44Zm-2.64-7.92l-5.22-15.42-5.16,15.42h10.38Z"/>
        <path class="cls-2" d="M247.47,72.1l-14.16-18.6v18.6h-10.26V29.98h10.26v18.48l14.04-18.48h12.06l-16.32,20.64,16.92,21.48h-12.54Z"/>
        <path class="cls-2" d="M275.13,38.2v8.52h13.74v7.92h-13.74v9.24h15.54v8.22h-25.8V29.98h25.8v8.22h-15.54Z"/>
      </g>
    </g>
  </g>
</svg>