<?xml version="1.0" encoding="UTF-8"?>
<svg id="Layer_2" data-name="Layer 2" xmlns="http://www.w3.org/2000/svg" xmlns:xlink="http://www.w3.org/1999/xlink" viewBox="0 0 345 104">
  <defs>
    <style>
      .cls-1 {
        fill: #fffdfe;
      }

      .cls-2 {
        filter: url(#drop-shadow-2);
      }

      .cls-3 {
        fill: url(#linear-gradient);
        filter: url(#drop-shadow-1);
        stroke: #fff;
        stroke-miterlimit: 10;
        stroke-width: 3.77px;
      }
    </style>
    <linearGradient id="linear-gradient" x1="-27.51" y1="-16.33" x2="319.05" y2="98.05" gradientUnits="userSpaceOnUse">
      <stop offset="0" stop-color="#e01f76"/>
      <stop offset="1" stop-color="#ee962f"/>
    </linearGradient>
    <filter id="drop-shadow-1" filterUnits="userSpaceOnUse">
      <feOffset dx="2.83" dy="2.83"/>
      <feGaussianBlur result="blur" stdDeviation=".94"/>
      <feFlood flood-color="#000" flood-opacity=".4"/>
      <feComposite in2="blur" operator="in"/>
      <feComposite in="SourceGraphic"/>
    </filter>
    <filter id="drop-shadow-2" filterUnits="userSpaceOnUse">
      <feOffset dx="3" dy="3"/>
      <feGaussianBlur result="blur-2" stdDeviation="1"/>
      <feFlood flood-color="#000" flood-opacity=".4"/>
      <feComposite in2="blur-2" operator="in"/>
      <feComposite in="SourceGraphic"/>
    </filter>
  </defs>
  <g id="Layer_1-2" data-name="Layer 1">
    <g>
      <rect class="cls-3" x="2.17" y="1.93" width="334.11" height="93.35" rx="17.93" ry="17.93"/>
      <g class="cls-2">
        <path class="cls-1" d="M60.45,29.32v25.2c0,2.52,.62,4.46,1.86,5.82,1.24,1.36,3.06,2.04,5.46,2.04s4.24-.68,5.52-2.04c1.28-1.36,1.92-3.3,1.92-5.82V29.32h10.26v25.14c0,3.76-.8,6.94-2.4,9.54-1.6,2.6-3.75,4.56-6.45,5.88-2.7,1.32-5.71,1.98-9.03,1.98s-6.29-.65-8.91-1.95c-2.62-1.3-4.69-3.26-6.21-5.88-1.52-2.62-2.28-5.81-2.28-9.57V29.32h10.26Z"/>
        <path class="cls-1" d="M123.09,49.57c-1.12,2.02-2.84,3.65-5.16,4.89-2.32,1.24-5.2,1.86-8.64,1.86h-6.36v15.12h-10.26V29.32h16.62c3.36,0,6.2,.58,8.52,1.74,2.32,1.16,4.06,2.76,5.22,4.8,1.16,2.04,1.74,4.38,1.74,7.02,0,2.44-.56,4.67-1.68,6.69Zm-10.2-2.79c.96-.92,1.44-2.22,1.44-3.9s-.48-2.98-1.44-3.9c-.96-.92-2.42-1.38-4.38-1.38h-5.58v10.56h5.58c1.96,0,3.42-.46,4.38-1.38Z"/>
        <path class="cls-1" d="M140.37,63.52h13.44v7.92h-23.7V29.32h10.26V63.52Z"/>
        <path class="cls-1" d="M167.76,69.1c-3.3-1.84-5.92-4.41-7.86-7.71s-2.91-7.01-2.91-11.13,.97-7.82,2.91-11.1c1.94-3.28,4.56-5.84,7.86-7.68s6.93-2.76,10.89-2.76,7.59,.92,10.89,2.76,5.9,4.4,7.8,7.68c1.9,3.28,2.85,6.98,2.85,11.1s-.96,7.83-2.88,11.13-4.52,5.87-7.8,7.71c-3.28,1.84-6.9,2.76-10.86,2.76s-7.59-.92-10.89-2.76Zm18.96-9.96c2.02-2.24,3.03-5.2,3.03-8.88s-1.01-6.69-3.03-8.91c-2.02-2.22-4.71-3.33-8.07-3.33s-6.11,1.1-8.13,3.3c-2.02,2.2-3.03,5.18-3.03,8.94s1.01,6.69,3.03,8.91c2.02,2.22,4.73,3.33,8.13,3.33s6.05-1.12,8.07-3.36Z"/>
        <path class="cls-1" d="M232.11,64h-15.72l-2.52,7.44h-10.74l15.24-42.12h11.88l15.24,42.12h-10.86l-2.52-7.44Zm-2.64-7.92l-5.22-15.42-5.16,15.42h10.38Z"/>
        <path class="cls-1" d="M277.53,31.96c3.32,1.76,5.89,4.23,7.71,7.41,1.82,3.18,2.73,6.85,2.73,11.01s-.91,7.78-2.73,10.98c-1.82,3.2-4.4,5.68-7.74,7.44-3.34,1.76-7.21,2.64-11.61,2.64h-15.78V29.32h15.78c4.44,0,8.32,.88,11.64,2.64Zm-3.24,27.42c2.16-2.12,3.24-5.12,3.24-9s-1.08-6.9-3.24-9.06c-2.16-2.16-5.18-3.24-9.06-3.24h-4.86v24.48h4.86c3.88,0,6.9-1.06,9.06-3.18Z"/>
      </g>
    </g>
  </g>
</svg>