<?xml version="1.0" encoding="UTF-8"?>
<svg id="Layer_2" data-name="Layer 2" xmlns="http://www.w3.org/2000/svg" xmlns:xlink="http://www.w3.org/1999/xlink" viewBox="0 0 446 105">
  <defs>
    <style>
      .cls-1 {
        fill: #fffdfe;
      }

      .cls-2 {
        filter: url(#drop-shadow-2);
      }

      .cls-3 {
        fill: url(#linear-gradient);
        filter: url(#drop-shadow-1);
        stroke: #fff;
        stroke-miterlimit: 10;
        stroke-width: 4.29px;
      }
    </style>
    <linearGradient id="linear-gradient" x1="-31.59" y1="-33.91" x2="410.62" y2="112.04" gradientUnits="userSpaceOnUse">
      <stop offset="0" stop-color="#e01f76"/>
      <stop offset="1" stop-color="#ee962f"/>
    </linearGradient>
    <filter id="drop-shadow-1" filterUnits="userSpaceOnUse">
      <feOffset dx="3.22" dy="3.22"/>
      <feGaussianBlur result="blur" stdDeviation="1.07"/>
      <feFlood flood-color="#000" flood-opacity=".4"/>
      <feComposite in2="blur" operator="in"/>
      <feComposite in="SourceGraphic"/>
    </filter>
    <filter id="drop-shadow-2" filterUnits="userSpaceOnUse">
      <feOffset dx="3" dy="3"/>
      <feGaussianBlur result="blur-2" stdDeviation="1"/>
      <feFlood flood-color="#000" flood-opacity=".4"/>
      <feComposite in2="blur-2" operator="in"/>
      <feComposite in="SourceGraphic"/>
    </filter>
  </defs>
  <g id="Layer_1-2" data-name="Layer 1">
    <g>
      <rect class="cls-3" x="2.71" y="2.26" width="433.46" height="93.35" rx="20.42" ry="20.42"/>
      <g class="cls-2">
        <path class="cls-1" d="M55.84,70.93c-2.44-1-4.39-2.48-5.85-4.44-1.46-1.96-2.23-4.32-2.31-7.08h10.92c.16,1.56,.7,2.75,1.62,3.57,.92,.82,2.12,1.23,3.6,1.23s2.72-.35,3.6-1.05,1.32-1.67,1.32-2.91c0-1.04-.35-1.9-1.05-2.58-.7-.68-1.56-1.24-2.58-1.68-1.02-.44-2.47-.94-4.35-1.5-2.72-.84-4.94-1.68-6.66-2.52-1.72-.84-3.2-2.08-4.44-3.72-1.24-1.64-1.86-3.78-1.86-6.42,0-3.92,1.42-6.99,4.26-9.21,2.84-2.22,6.54-3.33,11.1-3.33s8.38,1.11,11.22,3.33c2.84,2.22,4.36,5.31,4.56,9.27h-11.1c-.08-1.36-.58-2.43-1.5-3.21s-2.1-1.17-3.54-1.17c-1.24,0-2.24,.33-3,.99s-1.14,1.61-1.14,2.85c0,1.36,.64,2.42,1.92,3.18,1.28,.76,3.28,1.58,6,2.46,2.72,.92,4.93,1.8,6.63,2.64s3.17,2.06,4.41,3.66c1.24,1.6,1.86,3.66,1.86,6.18s-.61,4.58-1.83,6.54c-1.22,1.96-2.99,3.52-5.31,4.68-2.32,1.16-5.06,1.74-8.22,1.74s-5.84-.5-8.28-1.5Z"/>
        <path class="cls-1" d="M143.74,29.89l-10.98,42.12h-12.42l-6.72-27.72-6.96,27.72h-12.42l-10.68-42.12h10.98l6.06,30.66,7.5-30.66h11.28l7.2,30.66,6.12-30.66h11.04Z"/>
        <path class="cls-1" d="M175.12,64.57h-15.72l-2.52,7.44h-10.74l15.24-42.12h11.88l15.24,42.12h-10.86l-2.52-7.44Zm-2.64-7.92l-5.22-15.42-5.16,15.42h10.38Z"/>
        <path class="cls-1" d="M223.54,50.14c-1.12,2.02-2.84,3.65-5.16,4.89-2.32,1.24-5.2,1.86-8.64,1.86h-6.36v15.12h-10.26V29.89h16.62c3.36,0,6.2,.58,8.52,1.74,2.32,1.16,4.06,2.76,5.22,4.8,1.16,2.04,1.74,4.38,1.74,7.02,0,2.44-.56,4.67-1.68,6.69Zm-10.2-2.79c.96-.92,1.44-2.22,1.44-3.9s-.48-2.98-1.44-3.9c-.96-.92-2.42-1.38-4.38-1.38h-5.58v10.56h5.58c1.96,0,3.42-.46,4.38-1.38Z"/>
        <path class="cls-1" d="M270.7,29.89v8.22h-17.16v8.88h12.84v7.98h-12.84v17.04h-10.26V29.89h27.42Z"/>
        <path class="cls-1" d="M302.32,64.57h-15.72l-2.52,7.44h-10.74l15.24-42.12h11.88l15.24,42.12h-10.86l-2.52-7.44Zm-2.64-7.92l-5.22-15.42-5.16,15.42h10.38Z"/>
        <path class="cls-1" d="M321.28,39.76c1.8-3.26,4.31-5.8,7.53-7.62,3.22-1.82,6.87-2.73,10.95-2.73,5,0,9.28,1.32,12.84,3.96,3.56,2.64,5.94,6.24,7.14,10.8h-11.28c-.84-1.76-2.03-3.1-3.57-4.02-1.54-.92-3.29-1.38-5.25-1.38-3.16,0-5.72,1.1-7.68,3.3-1.96,2.2-2.94,5.14-2.94,8.82s.98,6.62,2.94,8.82c1.96,2.2,4.52,3.3,7.68,3.3,1.96,0,3.71-.46,5.25-1.38,1.54-.92,2.73-2.26,3.57-4.02h11.28c-1.2,4.56-3.58,8.15-7.14,10.77-3.56,2.62-7.84,3.93-12.84,3.93-4.08,0-7.73-.91-10.95-2.73-3.22-1.82-5.73-4.35-7.53-7.59-1.8-3.24-2.7-6.94-2.7-11.1s.9-7.87,2.7-11.13Z"/>
        <path class="cls-1" d="M376.3,38.11v8.52h13.74v7.92h-13.74v9.24h15.54v8.22h-25.8V29.89h25.8v8.22h-15.54Z"/>
      </g>
    </g>
  </g>
</svg>